{
	"asset":
	{
		"version": "2.0",
		"generator": "Unreal Engine 5.0.0 glTF Exporter 1.3.0"
	},
	"scene": 0,
	"accessors": [
		{
			"bufferView": 0,
			"count": 265821,
			"type": "SCALAR",
			"componentType": 5125
		},
		{
			"bufferView": 1,
			"count": 262377,
			"type": "VEC3",
			"componentType": 5126,
			"min": [ -63.0332031, -0.600097656, -59.4926758 ],
			"max": [ 56.7995605, 10.1999512, 53.012207 ]
		},
		{
			"bufferView": 2,
			"count": 262377,
			"type": "VEC3",
			"componentType": 5126
		},
		{
			"bufferView": 3,
			"count": 262377,
			"type": "VEC4",
			"componentType": 5126
		},
		{
			"bufferView": 4,
			"count": 262377,
			"type": "VEC2",
			"componentType": 5126
		},
		{
			"bufferView": 5,
			"count": 262377,
			"type": "VEC2",
			"componentType": 5126
		},
		{
			"bufferView": 6,
			"count": 210720,
			"type": "SCALAR",
			"componentType": 5125
		},
		{
			"bufferView": 7,
			"count": 209172,
			"type": "VEC3",
			"componentType": 5126,
			"min": [ -67.133728, -0.596923828, -59.2807617 ],
			"max": [ 58.3886719, 10.3601074, 56.0039062 ]
		},
		{
			"bufferView": 8,
			"count": 209172,
			"type": "VEC3",
			"componentType": 5126
		},
		{
			"bufferView": 9,
			"count": 209172,
			"type": "VEC4",
			"componentType": 5126
		},
		{
			"bufferView": 10,
			"count": 209172,
			"type": "VEC2",
			"componentType": 5126
		},
		{
			"bufferView": 11,
			"count": 209172,
			"type": "VEC2",
			"componentType": 5126
		},
		{
			"bufferView": 12,
			"count": 392079,
			"type": "SCALAR",
			"componentType": 5125
		},
		{
			"bufferView": 13,
			"count": 387228,
			"type": "VEC3",
			"componentType": 5126,
			"min": [ -66.2300415, -0.454833984, -61.1816406 ],
			"max": [ 58.5317383, 10.3649902, 55.8974609 ]
		},
		{
			"bufferView": 14,
			"count": 387228,
			"type": "VEC3",
			"componentType": 5126
		},
		{
			"bufferView": 15,
			"count": 387228,
			"type": "VEC4",
			"componentType": 5126
		},
		{
			"bufferView": 16,
			"count": 387228,
			"type": "VEC2",
			"componentType": 5126
		},
		{
			"bufferView": 17,
			"count": 387228,
			"type": "VEC2",
			"componentType": 5126
		},
		{
			"bufferView": 18,
			"count": 337533,
			"type": "SCALAR",
			"componentType": 5125
		},
		{
			"bufferView": 19,
			"count": 335188,
			"type": "VEC3",
			"componentType": 5126,
			"min": [ -65.5377808, -0.547363281, -61.184082 ],
			"max": [ 58.5307617, 10.3601074, 54.3520508 ]
		},
		{
			"bufferView": 20,
			"count": 335188,
			"type": "VEC3",
			"componentType": 5126
		},
		{
			"bufferView": 21,
			"count": 335188,
			"type": "VEC4",
			"componentType": 5126
		},
		{
			"bufferView": 22,
			"count": 335188,
			"type": "VEC2",
			"componentType": 5126
		},
		{
			"bufferView": 23,
			"count": 335188,
			"type": "VEC2",
			"componentType": 5126
		}
	],
	"buffers": [
		{
			"uri": "amanogawa.bin",
			"byteLength": 71686652
		}
	],
	"bufferViews": [
		{
			"buffer": 0,
			"byteLength": 1063284,
			"target": 34963
		},
		{
			"buffer": 0,
			"byteLength": 3148524,
			"byteOffset": 1063284,
			"target": 34962
		},
		{
			"buffer": 0,
			"byteLength": 3148524,
			"byteOffset": 4211808,
			"target": 34962
		},
		{
			"buffer": 0,
			"byteLength": 4198032,
			"byteOffset": 7360332,
			"target": 34962
		},
		{
			"buffer": 0,
			"byteLength": 2099016,
			"byteOffset": 11558364,
			"target": 34962
		},
		{
			"buffer": 0,
			"byteLength": 2099016,
			"byteOffset": 13657380,
			"target": 34962
		},
		{
			"buffer": 0,
			"byteLength": 842880,
			"byteOffset": 15756396,
			"target": 34963
		},
		{
			"buffer": 0,
			"byteLength": 2510064,
			"byteOffset": 16599276,
			"target": 34962
		},
		{
			"buffer": 0,
			"byteLength": 2510064,
			"byteOffset": 19109340,
			"target": 34962
		},
		{
			"buffer": 0,
			"byteLength": 3346752,
			"byteOffset": 21619404,
			"target": 34962
		},
		{
			"buffer": 0,
			"byteLength": 1673376,
			"byteOffset": 24966156,
			"target": 34962
		},
		{
			"buffer": 0,
			"byteLength": 1673376,
			"byteOffset": 26639532,
			"target": 34962
		},
		{
			"buffer": 0,
			"byteLength": 1568316,
			"byteOffset": 28312908,
			"target": 34963
		},
		{
			"buffer": 0,
			"byteLength": 4646736,
			"byteOffset": 29881224,
			"target": 34962
		},
		{
			"buffer": 0,
			"byteLength": 4646736,
			"byteOffset": 34527960,
			"target": 34962
		},
		{
			"buffer": 0,
			"byteLength": 6195648,
			"byteOffset": 39174696,
			"target": 34962
		},
		{
			"buffer": 0,
			"byteLength": 3097824,
			"byteOffset": 45370344,
			"target": 34962
		},
		{
			"buffer": 0,
			"byteLength": 3097824,
			"byteOffset": 48468168,
			"target": 34962
		},
		{
			"buffer": 0,
			"byteLength": 1350132,
			"byteOffset": 51565992,
			"target": 34963
		},
		{
			"buffer": 0,
			"byteLength": 4022256,
			"byteOffset": 52916124,
			"target": 34962
		},
		{
			"buffer": 0,
			"byteLength": 4022256,
			"byteOffset": 56938380,
			"target": 34962
		},
		{
			"buffer": 0,
			"byteLength": 5363008,
			"byteOffset": 60960636,
			"target": 34962
		},
		{
			"buffer": 0,
			"byteLength": 2681504,
			"byteOffset": 66323644,
			"target": 34962
		},
		{
			"buffer": 0,
			"byteLength": 2681504,
			"byteOffset": 69005148,
			"target": 34962
		}
	],
	"images": [
		{
			"uri": "Model_2.jpg"
		},
		{
			"uri": "Model_3.jpg"
		},
		{
			"uri": "Model_0.jpg"
		},
		{
			"uri": "Model_1.jpg"
		}
	],
	"materials": [
		{
			"name": "_ncl1_2",
			"pbrMetallicRoughness":
			{
				"baseColorTexture":
				{
					"index": 0
				}
			},
			"extensions":
			{
				"KHR_materials_unlit":
				{
				}
			}
		},
		{
			"name": "_ncl1_3",
			"pbrMetallicRoughness":
			{
				"baseColorTexture":
				{
					"index": 1
				}
			},
			"extensions":
			{
				"KHR_materials_unlit":
				{
				}
			}
		},
		{
			"name": "UnnamedMaterial",
			"pbrMetallicRoughness":
			{
				"baseColorTexture":
				{
					"index": 2
				}
			},
			"extensions":
			{
				"KHR_materials_unlit":
				{
				}
			}
		},
		{
			"name": "_ncl1_1",
			"pbrMetallicRoughness":
			{
				"baseColorTexture":
				{
					"index": 3
				}
			},
			"extensions":
			{
				"KHR_materials_unlit":
				{
				}
			}
		}
	],
	"meshes": [
		{
			"name": "SM_MERGED_StaticMeshActor_18",
			"primitives": [
				{
					"attributes":
					{
						"POSITION": 1,
						"NORMAL": 2,
						"TANGENT": 3,
						"TEXCOORD_0": 4,
						"TEXCOORD_1": 5
					},
					"indices": 0,
					"material": 0
				},
				{
					"attributes":
					{
						"POSITION": 7,
						"NORMAL": 8,
						"TANGENT": 9,
						"TEXCOORD_0": 10,
						"TEXCOORD_1": 11
					},
					"indices": 6,
					"material": 1
				},
				{
					"attributes":
					{
						"POSITION": 13,
						"NORMAL": 14,
						"TANGENT": 15,
						"TEXCOORD_0": 16,
						"TEXCOORD_1": 17
					},
					"indices": 12,
					"material": 2
				},
				{
					"attributes":
					{
						"POSITION": 19,
						"NORMAL": 20,
						"TANGENT": 21,
						"TEXCOORD_0": 22,
						"TEXCOORD_1": 23
					},
					"indices": 18,
					"material": 3
				}
			]
		}
	],
	"nodes": [
		{
			"mesh": 0
		}
	],
	"samplers": [
		{
			"name": "Model_2",
			"minFilter": 9987,
			"magFilter": 9729
		},
		{
			"name": "Model_3",
			"minFilter": 9987,
			"magFilter": 9729
		},
		{
			"name": "Model_0",
			"minFilter": 9987,
			"magFilter": 9729
		},
		{
			"name": "Model_1",
			"minFilter": 9987,
			"magFilter": 9729
		}
	],
	"scenes": [
		{
			"nodes": [ 0 ]
		}
	],
	"textures": [
		{
			"name": "Model_2",
			"sampler": 0,
			"source": 0
		},
		{
			"name": "Model_3",
			"sampler": 1,
			"source": 1
		},
		{
			"name": "Model_0",
			"sampler": 2,
			"source": 2
		},
		{
			"name": "Model_1",
			"sampler": 3,
			"source": 3
		}
	],
	"extensionsUsed": [
		"KHR_materials_unlit"
	]
}